<svg xmlns="http://www.w3.org/2000/svg" width="2544" height="2463" fill="none" viewBox="0 0 2544 2463"><g clip-path="url(#clip0_4_42)" filter="url(#filter0_d_4_42)"><path fill="#fff" d="M1362.18 1629.15H1820.18V2193.15H1362.18L1362.18 1629.15Z"/><path fill="#fff" fill-rule="evenodd" d="M1454.6 1059.19C1401.91 1022.99 1277.96 1039.9 1228.59 1077.49C1211.09 1091.85 1210.04 1105.53 1208.93 1120.06C1208.66 1123.49 1208.4 1126.96 1207.91 1130.5L1207.71 1131.87C1205.27 1147.79 1194.2 1165.13 1193.01 1185.67C1187.97 1182.71 1183.04 1179.31 1178.31 1176.04C1168.12 1169.01 1158.86 1162.62 1151.43 1162.72C1118.51 1163.15 1105.18 1209.31 1073.88 1234.3C1046.06 1251.61 1010.59 1252.98 978.764 1257.22L975.746 1257.63C866.908 1273.1 772.19 1341.83 707.584 1428.65C558.245 1641.38 544.619 1917.22 505.967 2166.52C505.215 2175.32 504.247 2184.54 503.252 2194.02C496.015 2262.94 487.283 2346.09 548.967 2388.24C548.127 2388.49 545.957 2388.4 543.467 2388.3C537.609 2388.06 529.978 2387.74 533.721 2391.56C609.969 2414.71 691.257 2409.63 767.722 2389.43C764.668 2410.33 761.742 2431.23 758.588 2452.12C757.022 2462.5 762.764 2473.02 774.492 2473C1097.77 2470.9 1421.02 2462.97 1744.29 2458.94L1753.03 2458.83C1817.18 2458.01 1881.35 2457.75 1945.47 2459.97C1968.6 2460.84 1991.4 2463.6 2014.42 2465.62C2032.21 2466.44 2043.56 2445.2 2034.75 2430.2C2031.07 2421.77 2027.09 2414.67 2022.04 2407.36C2049.99 2242.74 2011.32 2081.72 1972.85 1921.52C1958 1859.67 1943.17 1797.96 1932.23 1736.2C1902.51 1517.68 1865.03 1325.21 1618.14 1285.91C1612.47 1272.45 1612.1 1244.31 1603.87 1234.3C1597.24 1213.06 1559.45 1197.61 1536.57 1208.4C1512.32 1154.33 1506.64 1095.54 1454.6 1059.19ZM1506.46 1721.5C1510.56 1718.8 1689.79 1694.59 1759.17 1742.79C1774.61 1753.51 1770.14 1829.75 1765.11 1900.56L1763.07 1929.05C1753.87 1947 1735.99 2004.9 1720.55 2027.85C1691.62 2070.88 1604.85 2090.71 1555.05 2071.6C1531.02 2063.56 1494.87 2051.5 1482.85 2027.85C1471.39 2001.41 1484.33 1974.86 1497.42 1948.01C1505.06 1932.35 1512.75 1916.59 1515.67 1900.68C1516.91 1893.91 1513.3 1886.46 1509.73 1879.11C1506.9 1873.27 1504.09 1867.48 1503.75 1862.13C1503.78 1859.34 1504.01 1855.92 1504.26 1852.25C1504.86 1843.45 1505.55 1833.19 1503.75 1826.63C1501.08 1816.91 1497.04 1808.12 1493.13 1799.61C1485.52 1783.07 1478.41 1767.59 1482.85 1748.47C1471.69 1752.71 1464.53 1740.83 1474.19 1737.67C1479 1736.99 1483.82 1736.33 1488.65 1735.69C1493.53 1727.97 1497.42 1727.45 1506.46 1721.5Z" clip-rule="evenodd"/><path fill="#fff" fill-rule="evenodd" d="M1168.72 1175.03L1148.87 1162.85C1117.79 1165.57 1104.35 1209.97 1073.88 1234.3C1046.94 1251.06 1012.83 1252.87 981.806 1256.82L978.764 1257.22L975.746 1257.63C866.908 1273.1 772.19 1341.83 707.584 1428.65C558.245 1641.39 544.619 1917.22 505.967 2166.52C505.215 2175.32 504.247 2184.54 503.252 2194.02C496.015 2262.94 487.283 2346.09 548.967 2388.24C548.127 2388.49 545.957 2388.4 543.468 2388.3C537.609 2388.06 529.978 2387.74 533.721 2391.56C609.969 2414.71 691.257 2409.63 767.722 2389.43C764.668 2410.33 761.742 2431.23 758.588 2452.12C757.022 2462.5 762.764 2473.02 774.492 2473C1097.77 2470.9 1421.02 2462.97 1744.29 2458.94L1753.03 2458.83C1817.18 2458.01 1881.35 2457.75 1945.47 2459.98C1968.6 2460.84 1991.4 2463.6 2014.42 2465.62C2032.21 2466.44 2043.56 2445.2 2034.75 2430.2C2031.07 2421.77 2027.09 2414.67 2022.04 2407.36C2049.99 2242.74 2011.32 2081.72 1972.85 1921.52C1958 1859.68 1943.17 1797.96 1932.23 1736.2C1902.51 1517.68 1865.03 1325.21 1618.14 1285.91C1612.47 1272.45 1612.1 1244.31 1603.87 1234.3C1598.94 1218.5 1576.75 1205.9 1556.29 1204.93L1559.83 1215.69L1526.64 1246.93C1450.8 1299.15 1412.87 1329.22 1412.87 1337.14C1412.87 1344.51 1414.72 1359.09 1418.41 1380.89L1419.27 1385.95L1380.51 1424.6C1338.55 1382.5 1317.57 1355.5 1317.57 1343.58V1254.54C1317.57 1245.8 1306.4 1238.3 1284.04 1232.04L1168.72 1175.03ZM1425.18 1685.46C1413.87 1685.46 1390.71 1703.03 1355.69 1738.15L1352.61 1739.58C1310.28 1759.24 1282.23 1776.3 1268.48 1790.75L1267.99 1791.27C1254.09 1806.17 1226.58 1845.81 1185.44 1910.19L1125.86 1945.42H1103.32L1087.28 2061.82L1125.86 2144.94L1213.27 2115.5L1355.69 2077.96L1437.41 1995.05L1483.51 1979.57C1477.92 1995.73 1475.89 2011.81 1482.85 2027.85C1494.87 2051.5 1531.02 2063.56 1555.05 2071.6C1604.85 2090.71 1691.62 2070.88 1720.55 2027.85C1735.99 2004.9 1753.87 1947 1763.07 1929.05L1765.71 1892.04C1770.46 1823.75 1773.99 1753.09 1759.17 1742.79C1689.79 1694.59 1510.56 1718.81 1506.46 1721.5C1497.42 1727.45 1493.53 1727.97 1488.65 1735.69L1486.12 1736.03L1500.34 1716.74L1495.31 1714.05C1459.37 1694.99 1436 1685.46 1425.18 1685.46ZM1493.13 1799.62C1485.52 1783.07 1478.41 1767.6 1482.85 1748.48C1482.26 1748.7 1481.69 1748.87 1481.14 1749.01V1781.76L1502.68 1823.01C1500.07 1814.71 1496.55 1807.05 1493.13 1799.62Z" clip-rule="evenodd"/><path fill="#000" fill-rule="evenodd" d="M1205.27 1096.58C1204.08 1081.27 1227.9 1081.4 1229.08 1096.58C1231.65 1129.72 1224.19 1162.55 1208.14 1191.6C1208.02 1191.81 1207.89 1192 1207.77 1192.2C1217.81 1197.42 1227.96 1202.44 1238.34 1206.92C1251.62 1212.65 1265.15 1217.87 1278.92 1222.3C1291.38 1226.3 1306.72 1227.89 1317.19 1236.23C1337.97 1252.77 1331.85 1286.06 1327.52 1309.64C1327.25 1311.12 1326.98 1312.56 1326.73 1313.96L1326.07 1317.69C1323.95 1329.86 1322.42 1342.35 1327.56 1354.03C1333.04 1366.51 1344.12 1375.77 1354 1384.69L1356 1386.5C1364.76 1394.48 1374.77 1404.18 1381.19 1414.99C1387.05 1402.87 1395.05 1392.96 1403.5 1381.81C1408.38 1375.37 1406.5 1372.42 1403.31 1367.41C1402.56 1366.23 1401.73 1364.93 1400.91 1363.45C1396.74 1355.96 1394.7 1347.99 1396 1339.45C1398.41 1323.68 1411.01 1312.29 1423.56 1303.73C1438.37 1293.63 1454.9 1286.15 1470.22 1276.75C1501.69 1257.44 1532.33 1235.36 1559.94 1210.85C1560.7 1210.17 1562.02 1211.06 1561.41 1211.98C1539.6 1245.16 1514.03 1273.82 1482.6 1298.15C1469.86 1308.02 1456.47 1316.2 1442.99 1324.81L1439.12 1327.29C1433.7 1330.8 1426.95 1335.48 1424.51 1341.45C1422.63 1346.03 1425.23 1349.74 1427.83 1353.46C1428.64 1354.62 1429.45 1355.77 1430.12 1356.96C1439.1 1372.75 1434.77 1387.48 1424.13 1400.87L1423.63 1401.49C1413.06 1414.51 1405.05 1426.63 1401.22 1443.27C1392.98 1479.03 1404.45 1516.27 1416.46 1549.84L1416.93 1551.16C1423.42 1569.25 1430.33 1587.21 1435.97 1605.59L1437.52 1610.67C1442.63 1627.59 1446.82 1644.27 1441.08 1661.66C1439.13 1667.57 1431.07 1668.97 1427.72 1663.4C1415.9 1643.77 1412.95 1620.15 1405.55 1598.57C1398.33 1577.54 1390.04 1556.89 1383.06 1535.77C1374.08 1508.58 1368.07 1479.31 1371.33 1450.79C1371.24 1450.63 1371.13 1450.47 1371.05 1450.3L1368.77 1445.3C1362.53 1431.76 1356.51 1419.93 1345.18 1409.14C1333.35 1397.88 1320.52 1387.92 1311.21 1374.29C1295.78 1351.68 1299.42 1327.14 1303.09 1302.39C1304.23 1294.72 1305.37 1287.04 1305.94 1279.39L1306.22 1275.42C1306.67 1268.7 1306.91 1259.57 1302.52 1254.91C1297.58 1249.68 1286 1248.34 1279.45 1246.02C1262.52 1240.03 1245.83 1233.05 1229.94 1224.67C1214.81 1216.69 1200.16 1207.87 1186.51 1197.54L1179.6 1192.34C1168.69 1184.11 1157.37 1175.12 1150.06 1163.91C1149.22 1162.62 1150.65 1160.54 1152.18 1161.16C1164.39 1166.11 1175.54 1173.99 1186.96 1180.85C1187.14 1180.43 1187.35 1180.01 1187.58 1179.58C1201.71 1154.01 1207.52 1125.67 1205.27 1096.58ZM1533.59 1131.06C1536.87 1116.53 1514.33 1110.47 1510.52 1125.17C1502.27 1157 1513.03 1192.17 1538.9 1212.87C1550.75 1222.36 1567.7 1205.62 1555.74 1196.04L1555.04 1195.47C1536.12 1179.92 1527.26 1155.49 1533.48 1131.5L1533.59 1131.06ZM1148.18 1165.36C1151.22 1159.63 1144.14 1154.3 1139.35 1158.54C1119.37 1176.25 1098.75 1195.41 1076.46 1210.14C1069.84 1214.51 1066.46 1224.04 1070.39 1231.09C1039.28 1244.77 1004.07 1247.56 970.721 1252.1C937.879 1256.57 905.607 1263.75 874.209 1274.48C842.845 1285.19 812.453 1299.21 785.509 1318.69C756.749 1339.47 735.233 1365.62 714.879 1394.46C672.329 1454.74 641.772 1521.89 615.381 1590.51L612.88 1597.05C584.32 1672.12 560.598 1749.03 542.634 1827.33C532.54 1871.33 523.87 1915.75 516.408 1960.27C512.712 1982.31 509.444 2004.43 506.486 2026.58C505.917 2030.85 505.281 2035.14 504.641 2039.47C501.874 2058.15 499.043 2077.27 501.338 2095.8C501.936 2100.63 504.2 2104.52 507.28 2107.24C501.292 2131.12 497.41 2155.71 494.2 2179.84C489.418 2215.79 487.474 2252.61 488.402 2288.87C489.154 2318.25 491.156 2348.92 505.32 2375.33C519.714 2402.17 546.602 2418.64 575.37 2426.43C640.478 2444.04 706.855 2422.28 766.611 2396.44L772.137 2394.04L776.329 2392.16C771.045 2407.88 768.883 2424.55 763.161 2440.16C760.833 2446.52 764.703 2454.52 770.315 2457.74L771.131 2458.21L771.615 2458.48C775.863 2460.7 781.203 2460.73 785.353 2458.21L786.017 2457.79C786.539 2457.42 787.051 2457 787.549 2456.54L787.503 2456.58L787.639 2456.47L788.043 2456.1L788.035 2456.15L788.489 2455.73C792.797 2451.65 794.273 2446.42 793.181 2440.16L792.787 2437.76C790.231 2420.91 791.475 2403.65 788.073 2386.92C844.753 2361.44 900.425 2333.35 954.927 2303.58C988.813 2285.07 1022.23 2265.7 1054.96 2245.21C1071.06 2235.13 1087.03 2224.85 1102.86 2214.35L1103.9 2213.66C1120 2203.1 1137.93 2193.7 1148.33 2177.18C1152.06 2171.27 1150.26 2164.96 1146.02 2160.98C1149.07 2158.41 1150.97 2154.48 1151.44 2150.3C1175.48 2136.12 1203.28 2128.79 1230.52 2122.81L1233.04 2122.26C1269.22 2114.43 1305.91 2108.52 1340.12 2093.74C1356.62 2086.61 1372.01 2077.34 1385.51 2065.41C1400.43 2052.23 1411.49 2035.46 1425.75 2021.65C1432.5 2015.12 1439.97 2009.56 1448.78 2006.12C1450.87 2005.3 1452.99 2004.58 1455.13 2003.9C1459.8 2021.01 1465.49 2038.21 1476.31 2052.44C1488.85 2068.94 1506.62 2078.03 1526.91 2081.25C1549.69 2084.87 1573.2 2085.03 1596.2 2086.19C1600.87 2086.43 1605.62 2086.77 1610.41 2087.11C1629.9 2088.49 1650.1 2089.93 1668.72 2084.72C1707.15 2073.96 1732.31 2031.65 1748.18 1997.32L1749.14 1995.23C1766.04 1958.19 1775 1918.54 1778.51 1878.09C1782.58 1831.22 1778.57 1783.96 1769.59 1737.88C1768.95 1734.63 1765.95 1732.15 1762.94 1731.23C1684.51 1707.24 1595.25 1697.85 1514.88 1718.29C1515.58 1714.72 1515.35 1711.03 1513.85 1707.49C1510.06 1698.52 1500.16 1696.14 1491.7 1693.43L1490.53 1693.04C1479.18 1689.27 1467.85 1685.44 1456.48 1681.72L1456.22 1681.64C1437.49 1675.52 1418.35 1669.27 1400.13 1680.46C1391.77 1685.6 1384.56 1692.9 1378.22 1700.31C1374.49 1704.68 1370.81 1709.15 1367.23 1713.65C1366.63 1714.41 1364.91 1717.28 1363.23 1720.13L1360.16 1725.38C1360.09 1725.26 1359.99 1725.15 1359.83 1725.06C1357.74 1724.06 1356.58 1724.63 1354.96 1726.29C1354.33 1726.94 1353.98 1727.92 1354.11 1728.84C1322.61 1737.62 1292.59 1751.6 1268.38 1774.06C1238.58 1801.7 1219.84 1839.04 1197.78 1872.62C1185.8 1890.86 1172.05 1909.04 1155.83 1923.74C1147.9 1930.93 1139.17 1936.6 1129.81 1940.8C1129.62 1940.58 1129.43 1940.35 1129.21 1940.15C1121.82 1933.24 1110.09 1929.87 1101.48 1934.61C1101.46 1934.61 1101.44 1934.6 1101.43 1934.6L1100.96 1934.62C1100.88 1934.63 1100.8 1934.63 1100.72 1934.65L1100.25 1934.71C1096.99 1929.83 1090.74 1926.91 1084.15 1930.62C1022.97 1965.05 960.135 1996.87 895.949 2025.31C875.985 2034.15 855.923 2042.82 835.773 2051.27C835.829 2047.2 834.037 2043.05 830.933 2039.36C828.407 2036.35 824.191 2036.35 821.073 2038.18C843.371 2010.93 844.313 1974.17 845.515 1938.76L845.853 1929.35C846.537 1911.29 847.435 1893.24 848.335 1875.2C850.291 1835.93 852.247 1796.67 851.989 1757.3C851.973 1754.96 848.143 1754.25 847.753 1756.72C840.445 1803.09 835.633 1849.79 831.087 1896.5L828.503 1923.19C825.017 1959.14 828.327 2007.89 795.733 2032.03C792.771 2034.22 790.689 2037.97 790.287 2041.69C779.163 2038.93 767.737 2036.81 756.559 2034.84L749.887 2033.67C745.909 2032.98 741.835 2032.17 737.705 2031.35C723.393 2028.53 708.401 2025.57 694.343 2026.54C693.135 2026.62 692.441 2028.35 693.681 2028.99C709.799 2037.3 729.173 2040.76 746.417 2046.26C764.997 2052.19 783.793 2059.24 802.737 2063.81C803.397 2063.97 804.029 2064.05 804.639 2064.09L799.331 2066.25C767.029 2079.18 734.103 2091.03 702.279 2105.07C700.415 2105.89 701.833 2108.47 703.579 2108.15C736.233 2102.24 768.577 2092.47 800.165 2082.13L806.923 2079.91C840.261 2068.89 873.145 2056.86 905.613 2043.48C968.955 2017.38 1030.66 1988.01 1090.69 1955.02C1089.91 1959.69 1089.4 1964.41 1088.73 1968.83C1087.04 1980.01 1085.41 1991.23 1084.09 2002.46C1083.73 2005.57 1083.35 2008.68 1082.97 2011.8C1080.64 2031 1078.29 2050.31 1079.05 2069.66C1080.13 2097.52 1089.38 2131.95 1111.61 2151.25C1108.45 2156.06 1110.14 2161.58 1113.9 2165.09C1106.21 2169.63 1099.06 2175.25 1091.5 2180.38C1078.31 2189.32 1065.03 2198.13 1051.64 2206.78C1024.37 2224.42 996.753 2241.56 968.829 2258.15C913.997 2290.71 857.819 2320.74 800.063 2347.8C797.763 2348.88 795.457 2349.96 793.141 2351.05C738.977 2376.47 680.38 2403.98 619.604 2403.19C592.394 2402.83 561.348 2396.65 541.16 2376.99C521.666 2358.01 517.17 2328.88 515.158 2302.96L514.795 2298.11C512.235 2262.59 511.834 2227.1 512.718 2191.5C513.251 2170.09 514.828 2148.81 516.52 2127.54L517.796 2111.58C524.078 2111.87 530.354 2108.42 533.012 2100.09C539.212 2080.66 539.75 2059.86 542.092 2039.65C544.286 2020.73 546.784 2001.84 549.596 1983C555.438 1943.87 562.546 1905.02 571.298 1866.44C588.506 1790.59 609.822 1715.64 635.306 1642.15C659.808 1571.51 687.64 1501.71 727.229 1437.99C744.927 1409.52 764.263 1380.4 789.107 1357.6C812.511 1336.11 840.771 1320.35 869.503 1307.14C902.091 1292.17 936.641 1282.18 971.377 1273.58L975.163 1272.64C1009.86 1264.05 1043.98 1255.3 1073.87 1235.19C1093.24 1252.08 1110.87 1269.12 1127.25 1289.08C1143.81 1309.26 1159.68 1329.88 1178.59 1348.01C1197.53 1366.16 1218.97 1380.39 1243.56 1389.63C1269.01 1399.2 1296.49 1402.11 1319.88 1416.59C1324.37 1419.37 1329.71 1413.86 1327.06 1409.4C1313.6 1386.8 1288.08 1375.48 1264.2 1367.1L1259.4 1365.43C1235.64 1357.03 1215.98 1344.44 1198.2 1326.42C1180.18 1308.16 1164.99 1287.35 1148.94 1267.39C1136.38 1251.78 1123.08 1235.13 1107.57 1221.71C1113.62 1215.26 1119.58 1208.73 1125.14 1201.83C1134.32 1190.44 1141.34 1178.24 1148.18 1165.36ZM1562.03 1189.73C1561.43 1187.88 1563.72 1186.13 1565.34 1187.18C1574.72 1193.29 1582.85 1201.36 1591.5 1208.44C1601.1 1216.28 1610.78 1223.97 1620.6 1231.54C1634.92 1242.58 1618.31 1262.9 1605.71 1250.84C1588.46 1234.35 1569.57 1212.78 1562.03 1189.73ZM1621.38 1275.35C1622.26 1259.5 1600.1 1258.47 1595.23 1271.81C1591.37 1282.39 1590.3 1293.67 1585.61 1304.05C1580.95 1314.33 1575.56 1324.31 1569.65 1333.92C1558.02 1352.85 1545.28 1372.31 1531.44 1389.7C1518.18 1406.35 1497.04 1413.51 1476.44 1407.04C1472.35 1405.75 1468.02 1403.25 1463.59 1400.69C1453.24 1394.69 1442.29 1388.36 1432.29 1396.41C1431.25 1397.24 1432.37 1398.99 1433.57 1398.6C1442.02 1395.86 1449.62 1402.74 1456.67 1409.14C1459.94 1412.1 1463.09 1414.96 1466.16 1416.71C1474.32 1421.36 1483.72 1423.73 1493.03 1424.42C1515.14 1426.05 1534.32 1416.25 1548.94 1400.22C1565.06 1382.55 1580.16 1363.82 1593.04 1343.64C1599.79 1333.09 1605.42 1322.27 1610.3 1310.75L1610.81 1309.57C1615.53 1298.52 1620.7 1287.53 1621.38 1275.35ZM1623.14 1285.99C1620.01 1285.25 1619.01 1289.53 1621.85 1290.69C1692.78 1319.91 1765.4 1350.11 1816.13 1410.07C1866.12 1469.15 1890.69 1547.09 1907.36 1621.5L1908.37 1626.05C1925.4 1703.38 1940.47 1781.28 1955.25 1859.1L1965.12 1911.08C1971.72 1945.79 1978.33 1980.51 1984.75 2015.25L1985.95 2021.71C1993.61 2062.56 2002.27 2103.23 2008.08 2144.41C2014.98 2193.34 2019.61 2242.49 2021.85 2291.86C2024.09 2341.21 2021.77 2390.2 2018.53 2439.45C2017.41 2456.48 2046.1 2460.78 2048.73 2443.53C2062.03 2356.38 2054.7 2266.45 2042.52 2179.53L2041.65 2173.4C2029.57 2088.87 2013.17 2005.28 1995.8 1921.74L1992.31 1905.04C1973.54 1815.34 1956.6 1725.29 1937.99 1635.57C1921.25 1554.83 1900.04 1474.01 1849 1407.5C1822.74 1373.29 1789.7 1345.47 1750.67 1326.83C1711.67 1308.21 1670.63 1297.36 1628.85 1287.35L1623.14 1285.99ZM1439.14 1701.36C1440.4 1701.83 1441.65 1702.3 1442.87 1702.73C1451.18 1705.67 1459.54 1708.47 1467.89 1711.3L1467.97 1711.33C1469.2 1711.77 1476.96 1714.75 1483.51 1717.07L1486.57 1718.13L1485.23 1719.55C1485 1719.79 1484.78 1720.02 1484.54 1720.24C1482.06 1722.79 1479.79 1725.11 1477.83 1728.08C1477.76 1728.19 1477.71 1728.3 1477.65 1728.4C1453.38 1710.02 1415.08 1716 1386.16 1721.56L1380.51 1722.66C1391.76 1713.54 1404.42 1699.68 1418.64 1697.38C1425.56 1696.26 1432.57 1698.89 1439.14 1701.36ZM1129.96 1720.47C1131.86 1720.09 1133.81 1719.59 1135.8 1719.09C1142.88 1717.3 1150.34 1715.41 1157.02 1718.03C1161.42 1719.76 1163.59 1725.12 1159.88 1728.84C1153.43 1735.31 1144.06 1735.67 1135.37 1737.19L1134.61 1737.33C1124.34 1739.23 1114.05 1741.03 1103.75 1742.74C1084.36 1745.95 1064.94 1748.79 1045.44 1751.2C1025.42 1753.68 1005.34 1755.88 985.229 1757.54L977.445 1758.18C960.459 1759.54 942.785 1760.56 926.119 1757.96C923.697 1757.58 924.087 1754.06 926.119 1753.44C944.377 1747.91 964.405 1746.43 983.281 1744.09C1003.35 1741.6 1023.38 1738.97 1043.36 1735.85C1063.31 1732.74 1083.24 1729.39 1103.09 1725.7C1112.06 1724.03 1121.02 1722.29 1129.96 1720.47ZM1635.54 1722.72C1595.2 1718.39 1554.81 1719.3 1514.35 1720.47C1511.11 1731.05 1499.85 1740.07 1488.93 1740.41C1497.48 1753.42 1498.36 1771.03 1492.37 1784.83C1505.09 1789.89 1516.06 1798.99 1522.71 1811.95C1531.94 1829.92 1530.74 1849.91 1521.61 1866.52C1529.4 1873.56 1533.99 1885.01 1533.53 1895.8C1533.02 1907.83 1525.85 1918.1 1519.89 1928.06C1513.45 1938.84 1513.24 1948.32 1511.26 1960.38C1508.37 1978.04 1496.46 1988.75 1481.14 1995.44L1481.95 1998.64C1485.9 2014.02 1490.81 2030.24 1502.11 2041.48C1516.63 2055.95 1539.16 2055.82 1558.35 2056.73L1559.27 2056.78C1576.85 2057.66 1594.41 2058.68 1611.97 2059.68L1625.15 2060.42C1645.37 2061.53 1664.8 2061.66 1681.31 2048.29C1708.26 2026.47 1726.74 1990.35 1738.43 1958.38C1762.98 1891.26 1763.28 1817.61 1752.01 1747.72C1714.22 1735.54 1675.01 1726.96 1635.54 1722.72ZM1468.3 1757.42C1461.73 1741.89 1437.53 1742.22 1423.79 1743.15C1389.19 1745.49 1351.75 1754.24 1320.97 1770.41C1289.05 1787.18 1267.55 1814.04 1248.31 1843.75L1247.41 1845.14C1228.66 1874.29 1210.6 1908.79 1181.24 1928.83C1166.29 1939.04 1148.83 1948.36 1130.68 1952.4C1129.44 1954.59 1127.42 1956.32 1124.77 1956.95L1123.54 1957.24C1118.38 1958.38 1110.35 1959.64 1103.41 1958.88C1103.46 1962.28 1103.42 1965.64 1103.51 1968.86C1103.75 1978.07 1103.86 1987.32 1103.86 1996.53C1103.86 2003.5 1103.72 2010.48 1103.59 2017.46C1103.35 2029.81 1103.11 2042.16 1103.63 2054.5C1104.34 2071.58 1106.76 2089.42 1114.96 2104.69C1120.97 2115.89 1128.91 2123.3 1138.49 2130.37C1162.06 2116.01 1188.72 2107.25 1215.77 2100.67C1248.48 2092.71 1281.98 2087.39 1313.95 2076.6C1329.34 2071.4 1344.14 2064.6 1357.54 2055.36C1371.76 2045.55 1382.63 2032.28 1393.81 2019.29L1395.56 2017.28C1406.97 2004.19 1419.42 1991.67 1435.54 1984.58C1449.43 1978.46 1467.73 1977.38 1479.87 1967.92C1486.22 1962.97 1486.75 1955.79 1487.42 1948.44C1481.37 1949.31 1475.04 1948.42 1468.88 1947.55C1467.12 1947.31 1465.38 1947.06 1463.66 1946.86L1459.65 1946.39C1452.32 1945.52 1445.16 1944.56 1437.95 1942.7C1436.61 1942.35 1436.61 1940.33 1437.95 1939.99C1446.47 1937.78 1454.92 1936.85 1463.66 1935.82L1465.72 1935.57C1466.73 1935.43 1467.74 1935.29 1468.76 1935.15C1475.74 1934.18 1482.93 1933.19 1489.7 1934.7C1491.09 1929.41 1493.1 1924.35 1495.92 1919.29C1499.87 1912.17 1507.37 1904.11 1508.38 1895.8C1508.68 1893.32 1508.1 1890.39 1506.93 1888.2L1506.53 1887.45C1506.04 1886.57 1505.45 1885.68 1504.6 1885.13C1504.51 1885.24 1504.31 1885.36 1503.87 1885.5C1497.9 1887.38 1492.7 1884.46 1489.93 1879.95C1482.16 1880.92 1473.92 1881.03 1466.05 1881.13C1462.03 1881.19 1458.1 1881.24 1454.39 1881.4L1443.26 1881.94C1431.37 1882.49 1418.94 1882.73 1407.77 1880.32C1406.21 1879.99 1405.74 1877.39 1407.3 1876.73C1421.04 1870.85 1437.7 1868.98 1452.4 1866.72C1460.61 1865.46 1468.88 1864.5 1477.12 1863.39C1482.61 1862.65 1488.43 1861.43 1494.11 1861.13C1508.35 1843.4 1500.68 1815.42 1480.85 1807.79C1475.13 1810.3 1469.86 1809.67 1463.99 1808.96C1462.46 1808.77 1460.88 1808.58 1459.25 1808.44C1451.37 1807.76 1443.47 1807.3 1435.57 1807.34C1429.13 1807.37 1422.54 1808.07 1415.93 1808.78C1406.26 1809.81 1396.55 1810.85 1387.24 1809.78C1384.68 1809.49 1382.31 1806.09 1384.85 1804.02C1396.86 1794.22 1414.08 1791.02 1429.32 1788.93L1432.48 1788.51C1437.6 1787.84 1443.81 1786.86 1450.26 1786.28C1451.72 1783.44 1454.33 1781.29 1458.26 1780.75C1459.43 1780.59 1460.61 1780.5 1461.78 1780.4L1461.76 1780.28C1471.34 1779.82 1470.93 1763.63 1468.3 1757.42ZM1852.96 1798.99C1853.89 1797.57 1856.11 1798.47 1855.7 1800.14C1844.86 1844.56 1834.68 1889.07 1828.03 1934.34C1816.99 2009.57 1817.98 2085.7 1818.97 2161.55C1819.06 2168.07 1819.15 2174.59 1819.22 2181.1L1819.27 2185.36C1819.78 2229.69 1820.48 2274.03 1821.94 2318.34C1822.12 2323.74 1822.34 2329.15 1822.56 2334.57C1823.26 2351.63 1823.95 2368.76 1823.35 2385.76C1822.92 2397.92 1819.68 2409.42 1818.53 2421.43C1817.69 2430.15 1818.17 2438.99 1818.64 2447.76C1818.74 2449.54 1818.84 2451.33 1818.92 2453.11C1819.26 2460.1 1808.94 2459.8 1808.23 2453.11L1807.34 2444.45C1806.17 2433.49 1804.73 2422.6 1801.14 2412.12C1796.82 2399.5 1794.75 2387.11 1793.25 2373.87C1790.96 2353.57 1789.94 2333.08 1789.05 2312.64L1788.44 2298.5C1784.75 2213.1 1784.88 2127.29 1790.86 2041.97L1791.3 2035.87C1797.23 1955.23 1807.51 1868.09 1852.96 1798.99ZM1300.36 1834.09L1300.07 1834.07C1297.35 1834 1296.04 1837.48 1297.19 1839.61C1300.41 1845.51 1298.31 1852.56 1296.2 1859.61C1294.76 1864.47 1293.31 1869.33 1293.59 1873.82C1293.96 1879.64 1295.12 1885.23 1297.43 1890.58C1299.75 1895.99 1303.87 1900.47 1306.11 1905.84C1308.29 1911.07 1308.17 1917.06 1308.06 1923.09C1307.96 1928.22 1307.87 1933.37 1309.18 1938.11C1312.49 1950.05 1322.38 1959.48 1335.18 1955.39C1339.11 1954.13 1341.02 1951.08 1341.45 1947.16C1341.91 1942.86 1341.15 1939.01 1340.21 1935.01L1339.33 1931.26C1338.11 1925.9 1338.31 1920.44 1337.87 1914.97C1336.81 1901.67 1332.32 1893.05 1325.01 1882.29C1317.91 1871.82 1319.36 1861.34 1316.41 1849.74C1314.37 1841.76 1308.67 1835.04 1300.36 1834.09ZM811.611 2061.02C811.807 2060.78 811.993 2060.53 812.163 2060.27L812.883 2060.73L811.307 2061.37L811.611 2061.02ZM1437.51 2079.89C1438.73 2077.17 1443 2077.47 1444.31 2079.89C1449.45 2089.37 1450.02 2101.48 1451 2112.19L1451.1 2113.29C1452.33 2126.36 1453.43 2139.47 1454.1 2152.58C1455.37 2177.45 1455.98 2202.3 1455.9 2227.21C1455.82 2252.74 1455.3 2278.24 1453.93 2303.73L1453.56 2310.56C1452.3 2332.71 1450.19 2357.41 1439.67 2376.78C1435.84 2383.82 1425.43 2381.75 1423.22 2374.63C1416.88 2354.28 1418.92 2330.62 1420.78 2309.05C1421.05 2305.92 1421.31 2302.83 1421.55 2299.8L1422.99 2281.17C1424.43 2262.54 1425.79 2243.9 1426.87 2225.25C1428.36 2199.73 1429.58 2174.18 1430.76 2148.65C1431.14 2140.35 1431.56 2132.06 1431.99 2123.76L1432.67 2111.33C1433.24 2100.92 1433.19 2089.51 1437.51 2079.89ZM624.432 2109.82L621.218 2112.93C610.257 2123.59 600.069 2134.84 590.656 2146.92C581.218 2159.02 570.41 2172.14 564.238 2186.31C561.026 2193.69 560.496 2200.97 568.992 2203.66C569.974 2203.97 570.96 2202.75 570.368 2201.87L570.253 2201.66C568.503 2197.86 581.497 2185.15 587.705 2179.08C589.047 2177.77 590.072 2176.77 590.562 2176.23L593.444 2173.11C601.152 2164.81 609.049 2156.76 617.26 2148.93C626.516 2140.11 635.79 2131.37 645.63 2123.19C654.612 2115.72 667.09 2109.37 669.666 2097.14C670.872 2091.42 667.166 2086.59 661.35 2086.22C648.602 2085.42 637.471 2096.67 628.281 2105.97C626.957 2107.31 625.674 2108.61 624.432 2109.82Z" clip-rule="evenodd"/><path fill="#fff" d="M1374.26 303.667C1487.82 303.667 1605.28 391.691 1646.91 447.861C1695.04 512.811 1733.01 824.605 1715.2 930.403C1697.39 1036.2 1608.91 1151.52 1455.31 1151.52C1301.71 1151.52 1208.24 1132.6 1204.49 1105.12C1200.74 1077.64 1103.18 924.677 1103.18 924.677C1103.18 924.677 1003.4 896.613 1003.01 829.575C1002.62 762.537 1056.48 738.147 1056.48 738.147C1056.48 738.147 1037.28 473.589 1085.64 404.711C1134.01 335.833 1260.7 303.667 1374.26 303.667Z"/><path fill="#000" fill-rule="evenodd" d="M1318.46 277.158L1316.44 277.15C1249.6 277.038 1179.25 292.993 1126.75 336.018C1077.51 376.358 1046.68 435.218 1028.75 495.337C1016.62 536.017 1008.99 578.117 1005.76 620.437C1004.01 643.517 1003.51 666.697 1004.28 689.817C1005.02 712.177 1006.88 736.917 1015.62 757.677C1015.83 758.157 1016.25 758.557 1016.75 758.817C1015.33 760.037 1013.94 761.257 1012.62 762.537C999.585 775.337 994.325 792.557 992.683 810.357C989.565 844.377 1000.91 880.557 1025.02 905.117C1044.2 924.617 1073.88 939.257 1101.18 932.677C1105.27 942.595 1110.75 952.133 1116.29 961.363L1122.18 971.137C1130.65 985.255 1139.78 999.107 1149.01 1012.81L1154.54 1021.02C1164.15 1035.18 1173.83 1049.34 1181.6 1064.62C1189.52 1080.2 1194.18 1097.16 1202.52 1112.56C1205.06 1117.24 1211.58 1115.64 1213.14 1111.18C1224.44 1079.18 1199.75 1044.03 1181.31 1017.78C1180.66 1016.85 1180.01 1015.93 1179.38 1015.02L1174.17 1007.54C1163.37 992.089 1152.27 976.669 1140.67 961.837C1131.93 950.657 1122.97 938.537 1112.59 928.377C1116.49 925.137 1114.84 917.417 1109.67 916.337L1107.23 915.833C1084.55 911.131 1062 906.349 1044.52 889.917C1025.51 872.017 1016.18 845.897 1016.22 820.097C1016.25 806.717 1018.18 792.077 1027.2 781.597C1035.33 772.157 1048.43 764.877 1059.94 760.557C1081.91 752.297 1109.75 756.217 1127.54 772.097C1128.33 772.797 1129.09 773.517 1129.83 774.257C1130.25 774.697 1130.75 774.777 1131.18 774.657L1131.22 774.857C1132.22 778.537 1135.52 780.597 1139.15 780.877C1152.67 781.877 1166.18 782.877 1179.7 783.897C1182.81 784.117 1186.44 781.957 1187.84 779.217C1192.44 770.257 1191.22 758.473 1190.12 747.725C1189.8 744.633 1189.49 741.627 1189.33 738.797C1188.51 724.257 1185.83 641.397 1180.31 615.777C1180.33 615.777 1180.34 615.777 1180.36 615.797C1186.81 617.819 1191.37 615.117 1196.29 611.585L1208.31 602.891L1217.5 596.257C1226.44 589.817 1244.46 581.377 1247.86 569.977C1249.23 565.399 1247.19 560.963 1245.31 556.851C1245.07 556.327 1244.83 555.809 1244.6 555.297L1244.49 555.027C1240.5 545.609 1224.71 486.073 1217.76 483.657C1193.52 475.218 1169.15 467.278 1144.81 459.098C1132.94 455.118 1121.09 450.958 1109.52 446.198C1100.57 442.498 1091.86 437.618 1082.83 433.998C1110.49 441.278 1138.54 446.138 1167.01 449.418L1167.48 449.473C1183.05 451.292 1240.64 458.335 1245.74 458.922L1250.7 459.412C1299.95 464.07 1349.96 463.705 1399.67 463.342C1415.51 463.226 1431.31 463.111 1447.04 463.158L1546.52 463.458L1571.39 463.516C1579.68 463.528 1587.97 463.528 1596.26 463.498C1604.22 463.478 1612.18 463.458 1620.14 463.418C1621.68 463.414 1623.21 463.464 1624.75 463.514C1630.74 463.709 1636.68 463.903 1641.98 460.878C1643.74 459.878 1644.24 457.698 1643.52 455.998C1643.76 455.698 1644 455.398 1644.2 455.078C1644.22 461.918 1644.2 468.658 1645.24 475.658C1646.96 487.157 1648.54 498.697 1650.8 510.077C1655.18 532.137 1660.14 554.057 1664.56 576.117C1673.52 620.877 1681.1 665.957 1687.06 711.217C1693.02 756.417 1697.32 801.777 1699.96 847.297L1700.19 851.049C1700.35 853.781 1700.52 856.521 1700.69 859.267C1703.18 899.287 1705.74 940.561 1692.16 978.777C1684.7 999.757 1673.4 1019.7 1659.76 1037.28C1655.35 1042.98 1650.49 1048.27 1645.54 1053.48L1638.92 1060.42C1634.68 1064.9 1630.96 1069.72 1627.28 1074.62C1608.36 1087.66 1590.58 1102.06 1569.5 1111.96C1544.52 1123.7 1517.6 1131.26 1490.24 1134.92C1431.6 1142.78 1371.14 1136.28 1317.34 1111.38C1315.38 1110.48 1312.4 1112.54 1314 1114.72C1332.54 1140.06 1364.8 1153.36 1394.9 1158.56C1426.4 1164.02 1458.48 1164.94 1490.24 1161.12C1521.3 1157.36 1552 1149.86 1580.32 1136.28C1597.5 1128.02 1615.08 1117.68 1628.78 1104C1637.2 1100.8 1645.94 1097.48 1653.42 1092.44C1662.82 1086.1 1670.46 1077.68 1677.66 1069.02C1691.12 1052.84 1702.88 1035.24 1712 1016.24C1721.9 995.637 1728.44 974.297 1730.98 951.557C1733.19 932.025 1732.31 912.343 1731.15 892.745L1730.02 873.849C1724.27 779.877 1712.87 686.027 1695.42 593.497C1690.54 567.657 1685.52 541.757 1679.08 516.257C1675.76 503.157 1672 490.277 1667.54 477.517L1667.02 475.993C1665.28 470.88 1663.71 465.518 1661.34 460.718C1658.54 455.063 1654.89 449.861 1651.79 444.3C1651.27 443.351 1649.03 440.022 1648.91 439.862L1646.66 436.788C1571.9 335.788 1444.11 277.97 1318.46 277.158ZM1080.65 809.447C1074.05 805.627 1062.48 799.633 1055.07 802.997C1051.57 804.597 1048.72 807.777 1051.78 811.057C1052.54 811.897 1054.04 811.257 1054.02 810.137L1054.03 809.971C1054.49 807.159 1070.34 818.091 1071.82 819.161L1073.13 820.211C1074.32 821.199 1075.49 822.223 1076.65 823.257C1068.54 823.737 1060.99 827.477 1060.44 836.857C1060.1 842.537 1065.18 845.977 1070.15 846.557C1074.86 847.121 1077.65 844.627 1080.57 842.013C1081.79 840.917 1083.04 839.799 1084.47 838.877C1085.72 838.077 1087.12 837.457 1088.57 836.977C1094.62 846.197 1098.31 856.517 1099.9 867.537C1101.86 881.057 1125 875.557 1120.88 861.757C1114.47 840.357 1100.58 821.037 1081.08 809.697L1080.65 809.447Z" clip-rule="evenodd"/><path fill="#000" fill-rule="evenodd" d="M1595.44 630.095L1592.56 629.507C1589.18 628.83 1585.78 629.116 1582.8 630.331C1579.87 631.522 1577.32 633.597 1575.54 636.59C1573.17 640.576 1572.85 643.921 1573.95 648.339C1574.8 651.753 1576.66 654.321 1579.1 656.176C1581.66 658.131 1584.92 659.271 1588.3 659.667C1603.88 661.498 1619.24 664.928 1634.16 669.795C1641.15 672.077 1647.75 675.168 1654.29 678.375L1659.93 681.152C1665.13 683.695 1670.5 686.146 1677.29 687.925C1677.82 688.065 1678.35 688.197 1678.87 688.321C1680.76 687.73 1681.08 687.014 1681.47 686.495L1681.64 686.293C1682.12 685.684 1682.72 684.753 1682.15 680.41C1667.34 649.691 1626.71 636.632 1595.44 630.095ZM1401.35 638.809L1405.11 638.152C1416.72 636.143 1431.17 634.212 1439.38 643.551C1443.74 648.503 1445.24 657.707 1439.38 662.447C1431.71 668.656 1423.44 668.451 1414.61 668.232C1411.59 668.157 1408.49 668.08 1405.34 668.261C1395.16 668.845 1385.38 670.529 1375.58 673.331C1354.08 679.477 1336.55 690.697 1318.19 703.017C1315.78 704.633 1313.32 701.551 1314.47 699.297C1325.07 678.531 1345.62 661.473 1366.2 651.075C1377.18 645.525 1389.2 640.921 1401.35 638.809ZM1374.1 729.441C1375.77 708.728 1407.32 704.025 1410.46 724.521C1413.27 742.881 1409.96 759.747 1401.69 776.277C1393.79 792.069 1373.92 784.701 1372.42 770.321C1370.94 756.117 1371.99 747.645 1373.06 739.014C1373.44 735.933 1373.83 732.831 1374.1 729.441ZM1632.59 712.801C1624.98 710.579 1618.63 714.511 1614.23 720.271C1613.72 720.935 1613.31 721.593 1612.94 722.245C1599.21 734.861 1604.38 760.439 1615.18 773.247C1621.8 781.101 1636.47 778.839 1641 769.919C1649.35 753.493 1656.36 719.747 1632.59 712.801ZM1571.67 867.226C1587.92 844.468 1564.91 823.062 1549.8 813.882C1545.85 811.042 1548.99 801.635 1557.44 803.089C1634.24 816.283 1594.45 948.564 1496.4 875.974C1484.73 866.556 1498.86 845.816 1511.45 853.88C1512.08 854.37 1512.75 854.886 1513.45 855.426C1527.58 866.354 1553.45 886.35 1571.67 867.226ZM1501.35 1007C1487.91 1001.52 1475.91 992.368 1467.14 980.68C1464.09 976.618 1463.3 972.326 1463.94 968.402C1464.66 963.99 1467.27 959.992 1470.83 957.308C1474.4 954.618 1478.87 953.292 1483.19 953.968C1486.94 954.556 1490.67 956.61 1493.63 960.872L1494.25 961.724C1499.46 968.778 1506.26 974.564 1514 978.296C1521.46 981.892 1529.8 983.57 1538.44 982.594C1554.89 980.736 1566.22 971.84 1578.27 959.76C1579.77 958.236 1581.26 956.662 1582.76 955.064C1583.71 953.616 1585.03 952.684 1586.49 952.196C1588.11 951.654 1589.95 951.684 1591.63 952.272C1593.25 952.838 1594.7 953.91 1595.67 955.336C1596.59 956.692 1597.12 958.368 1596.95 960.296C1595.85 972.814 1589.3 983.986 1580 992.758C1569.68 1002.5 1555.99 1009.24 1543.11 1011.61C1528.91 1014.21 1514.45 1012.34 1501.35 1007Z" clip-rule="evenodd"/><path fill="#000" fill-rule="evenodd" d="M1780.66 700.091C1793.29 694.111 1807.8 694.469 1821.38 696.245C1848.88 709.001 1789.9 723.777 1782.88 710.205C1789.78 761.091 1770.05 844.927 1713.63 871.413C1648.44 903.287 1577.72 854.805 1580.29 777.105C1566.31 773.711 1576.03 734.575 1581.66 718.677C1557.07 714.853 1533.65 712.599 1509.97 720.107C1523.02 756.919 1476.55 867.723 1431.89 889.797C1397.26 913.713 1319.17 903.049 1288.07 865.877C1265.87 837.489 1254.78 771.605 1267.06 725.825C1266.95 725.777 1266.84 725.741 1266.74 725.687C1266 732.887 1216.29 732.085 1218.77 719.755C1147.37 721.037 1078.23 731.989 1007.55 739.709C999.013 740.503 998.595 746.555 998.187 752.469C997.837 757.533 997.494 762.497 992.065 763.971C971.133 764.471 980.631 727.875 999.071 724.479C1016.68 722.639 1034.41 720.248 1052.2 717.85C1108.42 710.27 1165.23 702.611 1220.64 712.005C1228.4 702.146 1242.38 705.652 1253.77 708.509C1256.97 709.313 1259.97 710.066 1262.57 710.455C1271.98 654.929 1423.37 658.231 1473.53 680.759C1527.08 674.597 1582.8 671.071 1635.9 666.599C1669.52 655.815 1708.68 650.251 1743.67 660.767C1748.51 660.5 1749.06 661.271 1750.13 662.793C1750.33 663.062 1750.53 663.354 1750.78 663.669C1764.57 669.749 1776.77 683.565 1780.66 700.091ZM1762.36 761.713C1743.29 890.691 1610.18 904.955 1586.53 776.911C1590.33 775.249 1593.06 771.977 1592.49 765.625C1592.35 737.721 1601.02 708.229 1626.19 692.711C1652.2 676.699 1682.64 675.111 1712.74 675.515C1770.19 674.147 1768.98 722.161 1762.36 761.713ZM1508.71 716.479C1524.86 705.495 1547.67 704.859 1565.69 705.619C1571.9 705.983 1580.3 705.691 1586.16 708.817C1592.48 696.447 1602.2 685.747 1612.64 678.625C1606.56 679.086 1600.46 679.566 1594.35 680.046C1556.59 683.016 1518.36 686.022 1481.08 684.931C1492.73 691.757 1504.27 704.523 1508.71 716.479ZM1486.23 775.387C1436.24 947.459 1311.46 872.459 1297.85 850.407C1273.32 813.915 1268.7 725.207 1290.07 701.489C1315.12 683.933 1348.68 684.445 1379.86 684.921C1386.77 685.026 1393.57 685.13 1400.13 685.035C1466.53 685.931 1513.69 705.795 1486.23 775.387Z" clip-rule="evenodd"/></g><defs><filter id="filter0_d_4_42" width="2552" height="2463" x="-4" y="0" color-interpolation-filters="sRGB" filterUnits="userSpaceOnUse"><feFlood flood-opacity="0" result="BackgroundImageFix"/><feColorMatrix in="SourceAlpha" result="hardAlpha" type="matrix" values="0 0 0 0 0 0 0 0 0 0 0 0 0 0 0 0 0 0 127 0"/><feOffset dy="4"/><feGaussianBlur stdDeviation="2"/><feComposite in2="hardAlpha" operator="out"/><feColorMatrix type="matrix" values="0 0 0 0 0 0 0 0 0 0 0 0 0 0 0 0 0 0 0.25 0"/><feBlend in2="BackgroundImageFix" mode="normal" result="effect1_dropShadow_4_42"/><feBlend in="SourceGraphic" in2="effect1_dropShadow_4_42" mode="normal" result="shape"/></filter><clipPath id="clip0_4_42"><rect width="2544" height="2455" fill="#fff"/></clipPath></defs></svg>